<?xml version="1.0" standalone="no"?>
<!DOCTYPE svg PUBLIC "-//W3C//DTD SVG 20010904//EN"
 "http://www.w3.org/TR/2001/REC-SVG-20010904/DTD/svg10.dtd">
<svg version="1.0" xmlns="http://www.w3.org/2000/svg"
 width="500.000000pt" height="500.000000pt" viewBox="0 0 500.000000 500.000000"
 preserveAspectRatio="xMidYMid meet">
<metadata>
Created by potrace 1.14, written by Peter Selinger 2001-2017
</metadata>
<g transform="translate(0.000000,500.000000) scale(0.100000,-0.100000)"
fill="#000000" stroke="none">
<path d="M3385 4298 c-2 -7 -6 -173 -9 -368 -4 -360 -11 -430 -51 -580 -17
-59 -65 -170 -74 -170 -3 0 -26 36 -50 80 -86 156 -207 272 -358 345 -112 54
-172 67 -328 72 -125 4 -150 2 -235 -20 -263 -68 -469 -232 -580 -462 -53
-109 -78 -191 -87 -290 -5 -55 -12 -72 -48 -121 -24 -31 -50 -79 -59 -107 -35
-109 -9 -242 65 -322 37 -40 61 -95 41 -95 -18 0 -153 151 -201 225 -80 123
-131 282 -131 407 1 139 53 299 139 431 164 250 461 439 806 513 108 23 337
23 465 1 229 -41 387 -102 555 -215 108 -73 115 -71 115 32 0 62 -3 75 -22 93
-66 61 -357 169 -593 219 -112 24 -153 27 -300 28 -151 0 -184 -3 -290 -28
-281 -65 -522 -195 -714 -385 -150 -148 -241 -301 -288 -479 -22 -86 -24 -112
-20 -232 3 -119 8 -146 36 -230 59 -174 151 -313 315 -475 114 -113 202 -168
272 -169 23 -1 45 1 47 4 3 3 -6 37 -19 77 -28 82 -54 201 -54 244 0 21 -12
42 -46 76 -57 58 -76 101 -76 174 0 70 26 132 80 191 35 38 41 52 52 121 46
303 244 557 505 647 30 10 100 24 155 30 317 35 582 -115 733 -415 44 -88 63
-148 82 -254 12 -71 21 -92 56 -137 41 -53 69 -124 69 -174 0 -54 -31 -132
-71 -175 -35 -38 -41 -51 -54 -131 -9 -49 -27 -126 -40 -170 -14 -45 -25 -87
-25 -93 0 -7 21 -11 53 -11 60 0 85 14 213 121 180 151 287 307 350 514 25 83
28 103 28 255 -1 138 -4 178 -22 245 -25 90 -107 262 -151 315 l-29 35 -7 -40
c-4 -22 -13 -64 -22 -94 l-15 -54 36 -76 c19 -42 42 -103 51 -135 67 -261 -24
-566 -230 -771 -64 -64 -70 -68 -73 -46 -2 15 8 39 28 65 17 22 43 66 58 96
23 47 27 67 27 145 0 79 -4 97 -28 144 -15 30 -41 69 -57 88 -45 51 -42 103
11 173 88 117 148 267 180 450 17 96 22 175 26 471 3 196 3 368 -1 383 -6 26
-7 26 -97 26 -63 0 -91 -4 -94 -12z"/>
<path d="M2326 3444 c-98 -24 -193 -80 -276 -163 -70 -71 -140 -175 -126 -188
4 -4 39 1 79 10 177 41 456 61 631 46 106 -9 284 -38 354 -58 21 -7 32 -6 32
1 0 29 -73 141 -131 200 -135 138 -364 200 -563 152z"/>
<path d="M2170 2989 c-158 -14 -245 -42 -319 -105 -44 -37 -115 -138 -152
-218 -55 -117 -31 -205 73 -277 69 -46 95 -75 109 -117 17 -54 46 -90 89 -112
71 -36 106 -36 208 4 51 20 115 41 142 47 56 12 48 -4 101 197 12 45 30 93 40
105 l18 22 14 -35 c9 -19 30 -86 48 -148 23 -81 38 -116 52 -124 11 -6 72 -28
135 -49 83 -29 130 -39 175 -39 58 0 62 1 101 43 23 24 50 68 61 98 17 44 29
59 70 86 71 46 102 84 121 149 23 81 13 125 -52 230 -95 152 -193 223 -341
244 -83 11 -553 11 -693 -1z m587 -58 c124 -7 150 -12 197 -35 60 -29 103 -73
138 -139 19 -35 23 -58 23 -137 0 -84 -3 -102 -28 -152 -53 -108 -157 -165
-277 -153 -35 3 -78 14 -95 25 -30 19 -81 81 -128 157 -15 23 -40 58 -58 77
-55 63 -89 48 -166 -72 -97 -151 -152 -194 -253 -195 -69 0 -134 29 -197 91
-64 61 -88 120 -88 213 0 67 4 84 35 145 39 76 102 132 173 154 88 27 442 37
724 21z"/>
<path d="M2250 2890 c-272 -11 -374 -79 -374 -250 1 -184 190 -313 317 -216
20 15 68 77 108 138 83 128 112 151 182 145 60 -5 82 -25 162 -147 85 -129
120 -162 183 -168 39 -3 60 1 107 24 95 47 143 133 132 240 -9 86 -64 167
-141 206 -62 32 -326 43 -676 28z"/>
<path d="M2456 2306 c-22 -73 -21 -76 19 -76 19 0 35 5 35 11 0 15 -31 119
-35 119 -2 0 -11 -24 -19 -54z"/>
<path d="M2333 2145 c-109 -30 -202 -98 -235 -171 -12 -26 -28 -32 -93 -36
l-40 -3 1 -81 c1 -111 3 -114 63 -114 48 0 51 -2 85 -49 71 -97 208 -161 341
-161 162 0 257 37 355 140 64 67 69 70 113 70 32 0 47 5 51 16 11 29 6 160 -6
172 -7 7 -31 12 -54 12 -41 0 -45 3 -78 53 -44 65 -92 104 -170 136 -76 31
-249 40 -333 16z"/>
<path d="M1508 1984 c-53 -28 -77 -123 -43 -171 27 -38 118 -64 265 -75 97 -8
143 -7 163 1 l28 11 -3 97 -3 98 -120 6 c-93 5 -130 11 -165 27 -53 25 -85 27
-122 6z"/>
<path d="M3305 1979 c-35 -15 -80 -22 -150 -26 -160 -7 -148 2 -139 -106 3
-51 11 -98 16 -104 14 -17 119 -16 240 2 149 22 202 50 214 112 12 63 -35 130
-97 138 -21 3 -53 -3 -84 -16z"/>
<path d="M812 1909 c-84 -10 -167 -30 -237 -59 -44 -18 -46 -20 -15 -15 19 3
112 8 206 11 160 6 179 5 305 -21 111 -23 137 -25 154 -14 18 11 19 11 6 -4
-12 -16 -9 -17 40 -17 l54 1 -65 34 c-87 44 -177 73 -253 80 -34 3 -75 7 -92
9 -16 2 -63 0 -103 -5z"/>
<path d="M3960 1914 c-75 -13 -149 -37 -143 -47 3 -5 1 -7 -5 -3 -5 3 -64 -8
-129 -25 -65 -17 -126 -32 -137 -34 -32 -7 -29 -13 10 -21 43 -8 249 20 269
36 6 5 14 8 17 5 3 -3 40 1 84 9 127 23 203 28 294 17 47 -5 110 -12 140 -15
l55 -6 -40 18 c-37 18 -131 44 -165 47 -9 0 -20 4 -26 8 -14 8 -190 17 -224
11z"/>
<path d="M575 1644 c-207 -38 -421 -49 -499 -26 -54 16 -56 9 -4 -21 87 -51
141 -62 303 -62 83 0 173 6 200 12 28 7 110 17 182 24 117 11 141 10 229 -6
55 -10 108 -20 119 -21 11 -1 27 -4 35 -7 8 -4 56 -13 105 -22 130 -22 269
-19 405 7 l115 23 -165 6 c-172 7 -209 13 -480 84 -201 53 -299 55 -545 9z
m412 -20 c-3 -3 -12 -4 -19 -1 -8 3 -5 6 6 6 11 1 17 -2 13 -5z m270 -80 c-3
-3 -12 -4 -19 -1 -8 3 -5 6 6 6 11 1 17 -2 13 -5z"/>
<path d="M3930 1661 c-47 -10 -132 -32 -190 -49 -143 -43 -272 -62 -420 -63
-123 -1 -124 -1 -76 -14 160 -44 376 -44 581 0 194 42 256 48 390 35 66 -6
142 -16 168 -22 27 -5 62 -8 78 -6 16 3 29 1 29 -2 0 -12 161 -18 228 -9 79
11 164 38 156 50 -3 5 1 7 8 4 7 -3 31 7 53 21 30 19 34 24 15 19 -107 -26
-324 -25 -479 4 -63 11 -118 18 -123 15 -4 -3 -8 -1 -8 4 0 12 -170 32 -257
31 -37 0 -106 -9 -153 -18z m895 -89 c-3 -3 -11 0 -18 7 -9 10 -8 11 6 5 10
-3 15 -9 12 -12z m-1148 -28 c-3 -3 -12 -4 -19 -1 -8 3 -5 6 6 6 11 1 17 -2
13 -5z"/>
<path d="M2225 1400 c-27 -5 -104 -28 -170 -51 -66 -22 -133 -43 -150 -45 -54
-9 -209 -6 -245 5 l-35 10 28 -23 c31 -25 106 -51 179 -61 47 -7 173 9 218 28
14 6 28 10 32 9 3 -1 39 10 79 23 105 36 179 34 304 -9 201 -69 354 -71 458
-4 26 16 47 32 47 33 0 2 -15 -1 -32 -6 -18 -5 -80 -9 -138 -9 -110 0 -231 25
-333 69 -27 12 -53 19 -57 16 -5 -3 -10 -1 -12 5 -4 14 -114 20 -173 10z"/>
<path d="M997 1243 c-26 -2 -46 -7 -43 -11 2 -4 -12 -7 -32 -8 -21 0 -123 -24
-228 -52 -104 -29 -217 -56 -250 -62 -45 -7 -21 -8 106 -5 92 2 201 11 245 20
221 43 387 41 625 -8 210 -43 343 -53 455 -34 l80 13 -85 8 c-146 13 -261 34
-365 67 -197 62 -362 86 -508 72z"/>
<path d="M3785 1239 c-34 -5 -95 -18 -135 -29 -245 -66 -396 -100 -475 -106
l-90 -8 75 -14 c94 -18 231 -7 470 40 219 42 359 44 580 6 187 -32 308 -42
375 -30 37 7 42 10 20 11 -34 1 -166 32 -369 85 -199 52 -319 64 -451 45z"/>
<path d="M2380 1044 c-52 -8 -144 -28 -205 -45 -280 -78 -350 -89 -580 -89
-106 0 -174 -4 -165 -9 8 -5 65 -22 125 -37 99 -26 126 -28 275 -28 151 0 180
3 340 36 97 21 227 42 290 48 107 10 124 9 255 -15 328 -61 387 -68 546 -69
110 -1 161 3 171 12 8 6 17 9 20 6 7 -6 133 25 173 43 27 12 19 13 -70 8 -118
-7 -337 9 -421 31 -32 8 -68 17 -79 18 -11 2 -27 6 -35 9 -40 17 -294 77 -363
86 -98 14 -156 13 -277 -5z m697 -120 c-3 -3 -12 -4 -19 -1 -8 3 -5 6 6 6 11
1 17 -2 13 -5z m208 -54 c-3 -5 -12 -10 -18 -10 -7 0 -6 4 3 10 19 12 23 12
15 0z"/>
</g>
</svg>
