<?xml version="1.0" standalone="no"?>
<!DOCTYPE svg PUBLIC "-//W3C//DTD SVG 20010904//EN"
 "http://www.w3.org/TR/2001/REC-SVG-20010904/DTD/svg10.dtd">
<svg version="1.0" xmlns="http://www.w3.org/2000/svg"
 width="500.000000pt" height="500.000000pt" viewBox="0 0 500.000000 500.000000"
 preserveAspectRatio="xMidYMid meet">
<metadata>
Created by potrace 1.14, written by Peter Selinger 2001-2017
</metadata>
<g transform="translate(0.000000,500.000000) scale(0.100000,-0.100000)"
fill="#000000" stroke="none">
<path d="M2391 4924 c-179 -41 -343 -206 -377 -379 -13 -67 -12 -167 1 -212 7
-24 11 -43 10 -43 -9 0 41 -100 72 -143 35 -50 71 -85 148 -143 44 -34 66 -76
67 -133 1 -36 -26 -81 -48 -81 -15 0 -26 -4 -124 -48 -29 -13 -79 -22 -143
-27 -54 -3 -108 -8 -120 -11 -12 -2 -61 -7 -108 -10 l-86 -6 -37 45 c-101 123
-264 114 -347 -19 -27 -44 -32 -131 -10 -180 21 -45 77 -104 101 -104 9 0 21
-5 26 -10 18 -18 98 -14 145 7 25 11 60 39 79 62 l35 43 55 -7 c97 -12 113
-15 118 -20 2 -2 -10 -26 -27 -53 -17 -27 -43 -82 -58 -123 -24 -68 -27 -89
-30 -249 -3 -216 -9 -252 -42 -257 -32 -5 -56 -27 -58 -52 -1 -11 -11 -29 -23
-41 -20 -20 -22 -30 -18 -122 2 -77 7 -102 19 -111 9 -7 21 -22 28 -35 7 -13
22 -27 33 -31 17 -6 22 -17 24 -54 2 -43 1 -47 -21 -47 -21 0 -78 -38 -97 -64
-3 -5 -18 1 -33 13 -35 27 -70 27 -115 0 -121 -74 -189 -174 -198 -289 -10
-146 57 -243 211 -304 27 -11 37 -21 37 -38 2 -191 23 -263 104 -355 61 -68
115 -105 198 -133 88 -30 203 -25 296 12 34 14 62 23 62 20 0 -25 -114 -122
-150 -128 -3 0 -23 -5 -45 -11 -49 -14 -55 -14 -185 -15 -149 -1 -263 33 -390
117 -65 44 -160 125 -160 137 0 3 31 14 70 22 38 9 95 28 127 42 l57 26 -25
19 c-13 10 -27 19 -31 19 -9 0 -145 91 -193 130 -79 63 -162 147 -236 240 -36
46 -120 181 -132 212 -10 27 -21 22 -38 -20 -75 -172 -66 -563 18 -795 29 -80
74 -158 88 -154 5 2 15 12 20 23 18 34 68 119 78 131 7 9 24 -9 61 -65 66 -99
77 -112 164 -199 61 -60 231 -193 247 -193 3 0 34 -18 70 -40 36 -22 70 -40
75 -40 6 0 10 -4 10 -10 0 -5 5 -10 10 -10 12 0 247 -137 382 -223 178 -113
281 -191 375 -283 l93 -91 33 29 c126 113 168 149 226 190 36 26 71 52 78 58
7 5 15 10 19 10 3 0 20 10 37 23 17 12 39 27 48 32 10 6 91 55 181 111 90 55
223 136 296 179 243 144 411 289 515 447 29 43 55 78 58 78 8 0 47 -61 79
-123 23 -43 26 -46 38 -30 38 51 94 188 108 267 3 16 7 32 9 36 2 3 7 29 10
56 4 27 10 75 14 108 12 85 4 291 -12 366 -16 72 -45 150 -56 150 -4 0 -15
-16 -24 -35 -27 -57 -106 -175 -161 -240 -105 -125 -226 -227 -373 -314 -40
-24 -71 -47 -68 -51 3 -5 56 -25 118 -45 61 -21 116 -41 120 -45 7 -7 -60 -73
-118 -115 -85 -62 -225 -121 -320 -133 -109 -15 -255 -6 -325 19 -76 27 -168
107 -147 128 6 6 15 7 21 2 30 -24 135 -49 207 -49 126 0 238 50 319 141 79
90 109 172 108 299 l-1 92 34 12 c165 57 235 178 205 352 -11 63 -50 125 -113
182 -91 80 -148 98 -194 61 -23 -19 -24 -19 -65 15 -22 19 -51 34 -64 34 -20
0 -22 4 -17 47 2 26 10 49 17 51 13 5 28 19 68 67 19 23 22 38 22 120 0 86 -2
96 -24 120 -14 15 -23 32 -21 38 7 20 -19 46 -50 50 -26 3 -30 9 -43 68 -7 35
-13 93 -13 129 3 156 1 185 -20 278 -10 48 -51 133 -81 172 l-19 24 78 18 c43
10 81 18 85 18 4 0 22 -16 40 -36 50 -55 108 -85 165 -85 180 -1 278 204 160
338 -78 89 -211 97 -288 19 -19 -19 -43 -44 -54 -56 -19 -20 -27 -21 -130 -17
-60 3 -121 8 -135 11 -14 3 -41 8 -60 10 -20 2 -49 8 -65 12 -16 4 -39 8 -50
8 -18 1 -136 45 -175 66 -11 6 -15 25 -14 77 0 79 10 98 75 144 134 96 207
227 214 385 7 151 -42 279 -146 384 -119 121 -300 172 -468 134z m219 -29
c110 -20 254 -133 304 -238 36 -77 33 -82 -11 -16 -54 80 -71 99 -134 151
-124 100 -308 118 -458 45 -108 -53 -186 -142 -231 -265 -25 -67 -37 -81 -26
-29 4 17 10 43 12 57 9 41 63 122 117 173 54 51 169 113 227 122 19 3 36 8 38
10 5 5 117 -2 162 -10z m32 -135 c61 -30 56 -37 -7 -9 -73 32 -192 31 -264 -4
-43 -20 -50 -22 -35 -7 54 55 216 65 306 20z m-1 -38 c205 -99 245 -371 77
-521 l-27 -23 -33 23 c-56 41 -81 51 -138 56 -59 6 -124 -17 -169 -58 -24 -23
-40 -17 -83 28 -55 59 -73 110 -73 208 1 94 15 139 60 196 34 42 100 90 146
105 64 20 184 13 240 -14z m203 -419 c-16 -70 -49 -124 -110 -183 -35 -34 -64
-67 -65 -74 0 -6 -5 0 -10 14 -19 46 -18 58 5 64 48 12 113 74 147 140 19 36
35 66 37 66 1 0 -1 -12 -4 -27z m-614 -87 c0 -10 55 -63 94 -89 14 -10 26 -25
26 -33 0 -11 -10 -8 -41 12 -68 42 -112 100 -134 174 -6 20 -1 17 24 -15 17
-22 31 -44 31 -49z m250 -34 c-24 -22 -30 -37 -35 -86 -3 -32 -8 -70 -11 -85
-12 -53 -59 -186 -69 -193 -11 -8 -34 69 -35 114 0 14 12 40 26 57 21 25 26
43 29 102 5 94 17 108 103 117 21 2 20 0 -8 -26z m-1014 -425 c52 -45 22 -130
-45 -130 -17 0 -39 7 -50 17 -76 69 17 180 95 113z m2031 17 c34 -9 56 -50 49
-89 -5 -25 -15 -37 -40 -49 -84 -40 -150 61 -80 122 27 23 36 25 71 16z
m-1511 -135 c-32 -28 -39 -30 -88 -24 -123 13 -172 24 -117 26 13 0 32 2 42 4
9 2 50 6 90 10 39 4 74 9 76 11 2 2 10 4 18 4 8 0 -2 -14 -21 -31z m1070 3
c-16 -2 -32 0 -37 5 -5 5 7 7 29 4 34 -5 35 -6 8 -9z m131 -15 c18 2 41 -1 50
-6 14 -8 9 -11 -27 -12 -25 -1 -68 -3 -96 -5 -36 -3 -55 0 -63 10 -10 12 -6
14 24 12 19 -1 35 2 35 6 0 4 10 4 23 -1 12 -4 37 -6 54 -4z m-587 -66 c3 -2
21 -4 40 -6 61 -4 290 -94 298 -116 2 -5 8 -9 13 -9 12 0 124 -78 146 -102 12
-14 4 -11 -27 9 -110 74 -306 163 -391 178 -131 24 -215 25 -315 5 -118 -24
-347 -128 -414 -187 -13 -13 -29 -23 -34 -23 -24 0 121 108 206 153 54 29 155
66 257 95 23 6 210 9 221 3z m-982 -61 c-65 -88 -217 -90 -281 -4 -18 24 -17
24 37 -6 84 -48 173 -40 232 20 30 29 37 23 12 -10z m2063 12 c-54 -101 -240
-107 -292 -10 -12 22 -12 22 12 5 95 -68 174 -67 259 2 31 25 33 26 21 3z
m-961 -317 c41 -9 83 -18 93 -20 34 -8 142 -48 167 -62 16 -9 18 -12 5 -8 -52
18 -86 25 -165 33 -90 10 -660 9 -676 0 -5 -3 -26 -9 -47 -12 -21 -3 -48 -11
-59 -17 -11 -6 -22 -9 -24 -6 -11 11 236 93 286 95 29 1 125 14 129 18 10 9
226 -7 291 -21z m-230 -182 c0 -5 -62 -8 -138 -9 -75 -1 -114 2 -87 5 81 10
225 12 225 4z m60 -2 c0 -4 -11 -6 -25 -3 -14 2 -25 6 -25 8 0 2 11 4 25 4 14
0 25 -4 25 -9z m60 0 c0 -4 -11 -6 -25 -3 -14 2 -25 6 -25 8 0 2 11 4 25 4 14
0 25 -4 25 -9z m130 -8 c2 -2 -23 -3 -57 -1 -33 2 -59 6 -57 10 4 7 105 -1
114 -9z m37 1 c-3 -3 -12 -4 -19 -1 -8 3 -5 6 6 6 11 1 17 -2 13 -5z m-714
-24 c15 0 27 -4 27 -8 0 -5 -19 -7 -42 -5 -81 7 -133 6 -158 -2 -24 -8 -24 -8
-5 -16 18 -7 17 -8 -5 -8 -14 -1 -36 -8 -48 -17 -18 -12 -22 -13 -22 -1 0 40
74 68 160 62 36 -3 77 -5 93 -5z m702 -8 c-3 -3 -11 0 -18 7 -9 10 -8 11 6 5
10 -3 15 -9 12 -12z m392 1 c29 -11 53 -39 53 -58 0 -4 -11 0 -25 9 -13 9 -35
16 -47 17 -21 0 -21 1 -4 8 31 12 3 22 -61 22 -32 0 -63 0 -68 -1 -6 -1 -19
-1 -30 0 -31 4 43 16 100 17 28 0 64 -6 82 -14z m-960 0 c-20 -2 -52 -2 -70 0
-17 2 0 4 38 4 39 0 53 -2 32 -4z m693 -1 c0 -4 -17 -6 -37 -4 -65 6 -70 10
-15 11 28 0 52 -3 52 -7z m60 0 c0 -10 -36 -9 -46 1 -4 4 5 7 19 7 15 0 27 -4
27 -8z m-669 -357 l-176 -295 -70 6 c-80 6 -145 21 -145 33 0 5 36 71 81 147
86 149 101 174 173 300 25 45 52 86 59 92 12 10 215 22 243 14 6 -2 -68 -135
-165 -297z m429 295 c0 -2 -30 -57 -67 -122 l-68 -117 -37 3 c-21 2 -54 0 -73
-4 l-34 -8 16 32 c9 17 19 33 23 36 4 3 9 10 11 16 2 5 24 44 49 87 29 49 52
77 65 79 32 5 115 3 115 -2z m-229 -18 c-39 -73 -257 -429 -282 -460 l-21 -27
16 28 c10 15 29 49 44 75 86 152 238 402 245 402 4 0 3 -8 -2 -18z m-341 1 c0
-5 -43 -85 -92 -171 -11 -20 -59 -106 -105 -189 -47 -84 -89 -153 -94 -153 -5
0 -9 14 -9 31 0 20 24 73 66 148 37 64 76 134 88 156 25 46 73 131 91 160 11
18 55 33 55 18z m1197 -160 c-3 -10 -5 -4 -5 12 0 17 2 24 5 18 2 -7 2 -21 0
-30z m19 -31 c6 -4 14 -18 18 -32 6 -23 6 -23 -5 -5 -6 11 -19 26 -27 33 -17
13 -5 17 14 4z m-1693 -22 c-10 -11 -18 -20 -19 -20 -1 0 0 9 3 20 3 11 12 20
19 20 11 0 10 -5 -3 -20z m1714 -62 c-3 -8 -6 -5 -6 6 -1 11 2 17 5 13 3 -3 4
-12 1 -19z m-811 -44 c18 -15 18 -15 -3 -5 -12 6 -36 11 -53 11 -17 0 -41 -5
-53 -11 -21 -10 -21 -10 -3 5 11 9 36 16 56 16 20 0 45 -7 56 -16z m-38 -12
c9 -7 12 -54 10 -200 l-2 -192 -26 0 -26 0 -2 192 c-1 142 2 194 11 200 15 10
19 10 35 0z m-737 -224 c10 -13 18 -28 19 -35 0 -12 25 -30 45 -32 55 -7 84
-15 80 -21 -7 -12 -105 16 -134 38 -14 10 -28 30 -32 45 -9 33 -3 34 22 5z
m1444 -38 c-22 -24 -93 -48 -165 -55 -44 -4 -38 -2 32 14 95 21 111 27 106 43
-2 6 5 21 17 34 20 23 20 23 23 3 2 -11 -4 -29 -13 -39z m-920 -7 c-23 -47
-29 -115 -12 -137 13 -17 25 -20 93 -18 74 2 121 12 57 12 -17 0 -37 7 -44 17
-13 15 -12 15 8 5 12 -7 33 -12 47 -12 14 0 26 -4 26 -10 0 -5 5 -10 11 -10 5
0 8 4 5 8 -3 5 13 9 36 10 23 1 50 10 61 19 19 17 20 17 8 -4 -8 -16 -22 -24
-44 -25 -18 -1 -3 -4 33 -7 61 -6 119 3 121 17 7 44 4 75 -12 117 l-18 50 25
-30 c13 -16 32 -54 41 -82 10 -32 24 -55 34 -58 24 -8 14 -31 -21 -45 -30 -12
-97 -8 -128 9 -29 15 -212 13 -275 -4 -78 -20 -109 -19 -136 7 l-23 21 22 17
c13 10 25 28 27 40 4 25 63 134 69 127 2 -2 -3 -17 -11 -34z m-789 -69 c12
-17 12 -23 0 -40 -14 -18 -15 -18 -24 6 -6 16 -6 29 1 38 7 9 6 11 -7 6 -9 -3
-16 -1 -16 6 0 18 31 8 46 -16z m129 16 c-3 -5 -16 -15 -28 -21 -19 -9 -19 -8
3 10 28 23 34 26 25 11z m338 3 c-7 -2 -21 -2 -30 0 -10 3 -4 5 12 5 17 0 24
-2 18 -5z m1551 -2 c3 -5 -2 -15 -12 -22 -15 -13 -16 -12 -3 4 17 22 3 22 -21
0 -21 -19 -23 -39 -5 -46 9 -4 9 -6 -1 -6 -19 -1 -26 27 -14 55 11 24 45 33
56 15z m-149 -21 c10 -11 16 -20 13 -20 -3 0 -13 9 -23 20 -10 11 -16 20 -13
20 3 0 13 -9 23 -20z m-1715 6 c0 -3 -15 -14 -32 -26 l-33 -22 30 26 c31 27
35 29 35 22z m1690 -21 c11 -13 10 -14 -4 -9 -9 3 -16 10 -16 15 0 13 6 11 20
-6z m145 -5 c3 -5 1 -10 -4 -10 -6 0 -11 5 -11 10 0 6 2 10 4 10 3 0 8 -4 11
-10z m-1825 -4 c0 -2 -8 -10 -17 -17 -16 -13 -17 -12 -4 4 13 16 21 21 21 13z
m282 -10 c9 -4 39 -39 67 -77 57 -77 100 -102 169 -97 23 2 42 1 42 -1 0 -2
-18 -19 -39 -38 -48 -41 -108 -155 -117 -224 l-7 -49 -24 32 c-57 76 -81 159
-88 301 -4 76 -9 97 -30 129 -26 39 -21 44 27 24z m1102 -29 c-19 -35 -25 -62
-28 -138 -6 -110 -26 -184 -69 -256 -33 -56 -47 -66 -47 -33 0 11 0 22 0 25 0
3 -10 31 -22 62 -24 68 -47 103 -100 159 l-39 41 48 -3 c62 -5 107 17 151 76
56 74 66 86 87 98 38 22 44 13 19 -31z m296 6 c0 -7 -39 17 -46 28 -3 6 5 3
20 -6 14 -10 26 -19 26 -22z m-2016 -37 c-34 -61 -41 -153 -15 -211 23 -52 77
-99 135 -116 46 -13 61 -29 28 -29 -9 0 -32 4 -51 10 -153 44 -212 239 -110
363 17 21 33 36 35 34 2 -2 -8 -25 -22 -51z m340 30 c-10 -8 -21 -12 -23 -10
-3 2 4 11 15 18 10 8 21 12 23 10 3 -2 -4 -11 -15 -18z m1988 -24 c63 -89 52
-230 -24 -298 -34 -31 -80 -53 -129 -60 -54 -8 -43 6 22 30 132 48 178 180
111 317 -31 63 -21 68 20 11z m-2103 -3 c11 -19 12 -21 0 -9 -8 8 -21 20 -29
28 -12 11 -12 13 -1 10 8 -2 21 -15 30 -29z m1708 -20 c25 -9 25 -10 8 -29
-10 -11 -26 -18 -39 -15 -11 2 -28 4 -37 4 -14 1 -16 7 -9 36 4 19 6 35 3 35
-2 0 -2 4 2 10 3 5 15 0 26 -11 11 -11 31 -24 46 -30z m183 42 c0 -5 -7 -11
-14 -14 -10 -4 -13 -1 -9 9 6 15 23 19 23 5z m-1667 -47 c6 -31 4 -32 -31 -37
-25 -3 -43 1 -55 11 -17 15 -16 17 17 34 19 10 38 23 41 29 10 15 21 0 28 -37z
m1637 12 c0 -2 -8 -10 -17 -17 -16 -13 -17 -12 -4 4 13 16 21 21 21 13z
m-1793 -57 c16 0 16 -1 -2 -8 -23 -10 -47 -3 -39 10 3 6 2 16 -3 22 -4 7 -1 5
9 -5 9 -10 24 -18 35 -19z m978 -6 c75 -25 152 -75 197 -128 35 -41 76 -132
82 -180 5 -49 5 -49 -4 -10 -16 62 -47 121 -87 166 -162 180 -418 188 -583 19
-30 -30 -67 -80 -82 -110 -15 -30 -27 -48 -28 -40 0 26 60 136 93 170 45 47
125 96 183 113 61 18 176 18 229 0z m785 8 c0 -12 -39 -21 -45 -11 -3 5 3 11
12 13 29 8 33 7 33 -2z m-1933 -81 c2 0 12 4 22 10 16 8 19 4 25 -32 5 -31 2
-51 -10 -74 -17 -32 -18 -32 -50 -16 -54 25 -78 117 -42 160 9 10 15 7 31 -17
10 -17 21 -31 24 -31z m2129 15 c3 -19 3 -46 0 -60 -7 -29 -54 -75 -76 -75
-23 0 -53 56 -44 83 4 12 7 30 5 40 -2 16 0 17 20 6 21 -11 26 -9 48 19 29 36
38 34 47 -13z m-1886 -3 c-30 -15 -77 -48 -104 -74 -27 -26 -51 -46 -53 -44
-2 2 16 23 41 47 41 40 138 99 161 98 6 0 -15 -12 -45 -27z m1618 -17 c-6 -6
-77 29 -78 38 0 4 18 -2 41 -13 23 -12 39 -23 37 -25z m-823 8 c-2 -16 -4 -39
-5 -53 -1 -23 -2 -23 -10 -5 -14 34 -12 85 4 85 10 0 13 -9 11 -27z m913 -83
c13 -14 28 -34 34 -45 6 -11 9 -18 6 -15 -2 3 -31 34 -63 70 -33 36 -47 54
-30 40 16 -14 40 -36 53 -50z m-2543 -25 c38 -71 88 -149 112 -173 7 -7 13
-16 13 -20 0 -12 132 -146 180 -184 25 -20 74 -52 109 -71 l64 -35 -29 -15
c-97 -49 -157 -24 -242 99 -34 49 -65 94 -69 99 -19 24 -65 96 -84 133 -7 12
-16 22 -21 22 -10 0 -10 -6 2 -28 5 -9 27 -55 49 -102 132 -281 303 -467 522
-569 133 -61 202 -76 369 -76 139 0 147 1 202 28 59 29 118 87 144 144 16 33
121 113 149 113 15 0 17 -6 11 -37 -11 -68 -14 -80 -37 -134 -70 -166 -159
-231 -321 -235 -113 -2 -291 29 -383 67 -240 99 -417 244 -558 455 -94 141
-179 333 -201 450 -2 16 -7 38 -9 49 -12 55 -18 99 -14 95 3 -3 22 -36 42 -75z
m965 46 c-73 -21 -136 -65 -176 -124 -43 -62 -57 -117 -51 -187 8 -77 9 -82
44 -139 51 -82 150 -139 243 -141 34 -1 34 -2 10 -11 -34 -14 -121 -4 -174 20
-96 42 -171 147 -181 252 -6 59 -15 78 -16 33 0 -16 -2 -38 -4 -49 -5 -27 14
-112 35 -160 26 -58 95 -131 154 -165 58 -34 55 -40 -4 -10 -54 28 -125 100
-154 158 -78 155 -45 337 85 456 56 52 108 78 157 81 18 1 35 5 38 8 3 2 15 2
27 -1 17 -4 9 -9 -33 -21z m1369 13 c58 -7 142 -65 194 -136 42 -57 89 -178
69 -178 -4 0 -9 12 -10 27 -4 51 -11 35 -11 -26 1 -106 -70 -224 -165 -273
-45 -23 -64 -28 -132 -35 -64 -7 -81 12 -19 20 179 25 300 216 244 387 -33 98
-124 182 -224 205 -27 7 -28 8 -10 15 11 4 24 5 30 2 5 -3 20 -7 34 -8z m-907
-89 c9 -17 6 -16 -18 5 -16 14 -33 28 -38 31 -4 4 -5 13 -1 19 8 13 32 -11 57
-55z m432 30 c-10 -8 -28 -20 -39 -27 -19 -10 -19 -10 -5 8 37 49 44 54 54 44
7 -7 4 -15 -10 -25z m1404 -12 c-11 -14 -11 -16 1 -8 9 5 12 4 8 -2 -3 -5 -9
-24 -12 -41 -11 -65 -59 -200 -101 -290 -48 -99 -103 -195 -116 -200 -4 -2 -8
-9 -8 -15 0 -7 -15 -30 -33 -52 -151 -186 -285 -274 -518 -340 -62 -17 -74
-20 -146 -31 -90 -14 -171 -3 -201 29 l-21 22 52 3 c47 2 155 14 247 28 239
34 465 179 605 390 48 71 129 229 174 339 19 44 40 95 47 113 28 64 5 30 -37
-55 -87 -181 -211 -353 -280 -389 -15 -7 -40 -14 -56 -14 -29 0 -113 29 -113
39 0 3 17 14 38 24 69 35 167 106 232 169 89 87 135 145 210 271 22 37 36 53
38 42 2 -9 -2 -23 -10 -32z m-1644 -54 c3 -2 -9 -5 -26 -6 -18 0 -26 2 -18 7
13 8 36 8 44 -1z m41 1 c3 -6 -1 -7 -9 -4 -18 7 -21 14 -7 14 6 0 13 -4 16
-10z m-75 -39 c0 -5 -12 -7 -26 -5 -37 4 -39 11 -4 12 16 0 30 -3 30 -7z m40
1 c0 -5 -7 -9 -15 -9 -8 0 -15 4 -15 9 0 4 7 8 15 8 8 0 15 -4 15 -8z m85 -2
c2 -3 -14 -5 -36 -5 -21 0 -39 3 -39 8 0 8 69 6 75 -3z m-645 -42 c8 -13 39
-51 68 -85 28 -34 52 -66 52 -71 0 -5 -18 -21 -39 -35 -41 -28 -64 -77 -54
-116 4 -16 -2 -20 -34 -25 -126 -21 -226 81 -208 210 8 55 62 118 118 137 52
18 78 14 97 -15z m1256 -3 c65 -43 98 -136 74 -210 -24 -74 -107 -128 -185
-122 -46 4 -55 14 -49 53 5 31 1 39 -35 74 -23 22 -46 40 -51 40 -20 0 -9 36
23 70 17 19 45 53 61 75 17 22 34 43 39 46 13 9 97 -9 123 -26z m-1076 21 c0
-3 -4 -8 -10 -11 -5 -3 -10 -1 -10 4 0 6 5 11 10 11 6 0 10 -2 10 -4z m343
-13 c-7 -2 -19 -2 -25 0 -7 3 -2 5 12 5 14 0 19 -2 13 -5z m37 3 c0 -3 -4 -8
-10 -11 -5 -3 -10 -1 -10 4 0 6 5 11 10 11 6 0 10 -2 10 -4z m43 -3 c-7 -2
-19 -2 -25 0 -7 3 -2 5 12 5 14 0 19 -2 13 -5z m94 -39 c-8 -8 -266 -8 -274 0
-4 3 58 6 137 6 79 0 141 -3 137 -6z m-417 -47 c0 -6 -3 -8 -6 -4 -3 3 -16 2
-28 -3 -24 -9 -52 2 -43 17 8 12 77 4 77 -10z m626 -5 c-3 -6 -21 -5 -48 2
l-42 11 39 5 c41 6 62 -1 51 -18z m-433 11 c-7 -2 -19 -2 -25 0 -7 3 -2 5 12
5 14 0 19 -2 13 -5z m135 0 c-21 -2 -57 -2 -80 0 -24 2 -7 4 37 4 44 0 63 -2
43 -4z m69 1 c-3 -3 -12 -4 -19 -1 -8 3 -5 6 6 6 11 1 17 -2 13 -5z m-42 -40
c-72 -8 -155 -8 -155 -1 0 4 42 6 93 5 50 0 79 -3 62 -4z m904 -56 c-6 -136
-85 -259 -203 -320 -44 -23 -149 -51 -141 -38 2 4 24 10 47 14 40 7 137 54
163 80 75 74 122 183 124 284 1 17 4 32 7 32 3 0 4 -24 3 -52z m-941 15 c-21
-2 -55 -2 -75 0 -21 2 -4 4 37 4 41 0 58 -2 38 -4z m61 -39 c2 -2 -38 -3 -90
-3 -55 1 -82 4 -64 8 30 6 146 3 154 -5z m-439 -113 c0 -3 24 -30 54 -58 58
-57 62 -68 10 -28 -49 37 -102 96 -115 128 -6 15 -15 27 -20 27 -11 0 15 -52
50 -100 l25 -35 -28 25 c-15 13 -37 40 -49 59 -25 41 -36 25 -12 -16 l17 -28
-26 30 c-17 20 -26 25 -26 15 0 -9 5 -21 12 -28 8 -8 8 -12 1 -12 -14 0 -37
56 -28 70 4 6 23 21 43 34 l37 23 28 -50 c15 -28 27 -53 27 -56z m791 70 c20
-14 36 -30 34 -35 -5 -24 -18 -46 -26 -46 -6 0 -5 9 1 20 6 11 8 20 5 20 -10
0 -35 -27 -29 -32 2 -3 -6 -13 -18 -24 l-22 -19 20 35 c28 49 39 83 16 50 -9
-14 -33 -41 -52 -61 -19 -19 -28 -26 -19 -15 38 51 64 106 50 106 -5 0 -14
-13 -19 -30 -6 -16 -36 -54 -67 -85 -64 -63 -89 -68 -29 -6 22 22 50 61 64 88
33 63 42 76 49 66 3 -5 22 -19 42 -32z m-1997 -120 c47 -116 48 -122 32 -146
-9 -14 -20 -25 -24 -25 -6 0 -39 125 -57 222 -2 11 -7 29 -10 41 -4 12 -9 31
-11 42 -12 50 25 -20 70 -134z m1225 109 c11 -24 11 -24 -3 -6 -9 11 -16 24
-16 30 0 12 5 7 19 -24z m281 20 c0 -5 -5 -10 -11 -10 -5 0 -7 5 -4 10 3 6 8
10 11 10 2 0 4 -4 4 -10z m60 0 c0 -5 -10 -10 -22 -10 -19 0 -20 2 -8 10 19
13 30 13 30 0z m1576 -67 c-9 -37 -19 -79 -23 -93 -3 -14 -7 -29 -7 -35 -6
-44 -19 -96 -26 -100 -5 -3 -16 6 -25 19 -18 26 -16 40 15 111 10 22 30 70 46
106 16 37 31 65 33 64 1 -2 -4 -34 -13 -72z m-1266 47 c-6 -11 -13 -20 -16
-20 -2 0 0 9 6 20 6 11 13 20 16 20 2 0 0 -9 -6 -20z m-515 -18 c-6 -4 -23
-23 -37 -41 l-27 -35 32 -24 c75 -56 125 -72 219 -73 66 0 125 14 174 42 45
25 95 72 73 67 -9 -2 -28 11 -42 28 -28 33 -36 53 -14 34 6 -6 26 -22 42 -35
l30 -25 23 27 c14 17 20 20 14 8 -6 -11 -27 -37 -49 -58 -137 -138 -387 -133
-514 10 -13 16 -21 25 -16 22 4 -3 24 9 44 27 20 19 42 34 47 34 8 0 8 -3 1
-8z m-105 -27 c7 -9 8 -15 2 -15 -5 0 -12 7 -16 15 -3 8 -4 15 -2 15 2 0 9 -7
16 -15z m294 -92 c4 -34 2 -43 -9 -43 -16 0 -18 12 -9 59 8 39 10 37 18 -16z
m-668 -133 c13 0 24 -4 24 -9 0 -10 -68 3 -78 15 -4 4 1 4 11 1 10 -4 30 -7
43 -7z m648 -522 c-1 -288 -3 -524 -3 -526 -1 -4 -68 46 -95 70 -49 45 -298
201 -546 343 -441 252 -559 331 -655 434 -60 65 -56 74 6 13 48 -48 191 -162
202 -162 2 0 46 -25 98 -56 112 -68 576 -307 639 -329 142 -51 249 -10 281
107 38 144 51 241 54 428 3 211 2 200 13 200 4 0 7 -235 6 -522z m1310 305
c-152 -135 -251 -202 -524 -355 -25 -14 -88 -50 -140 -80 -52 -30 -115 -66
-140 -80 -131 -74 -261 -156 -310 -197 -81 -68 -90 -74 -90 -64 0 17 53 68
140 134 103 79 180 127 325 204 111 58 187 99 305 162 127 69 306 183 370 237
36 30 69 55 74 55 6 1 1 -7 -10 -16z"/>
<path d="M1507 2199 c4 -13 8 -18 11 -10 2 7 -1 18 -6 23 -8 8 -9 4 -5 -13z"/>
<path d="M2015 2040 c-5 -9 -2 -49 10 -115 2 -11 4 -33 4 -48 1 -30 21 -28 21
1 0 10 13 33 29 52 27 33 28 37 15 62 -16 31 -69 64 -79 48z"/>
<path d="M2956 2034 c-16 -8 -35 -22 -42 -32 -15 -20 -18 -52 -5 -52 5 0 21
-24 35 -52 18 -37 25 -46 26 -30 0 12 1 24 1 27 13 51 24 137 19 144 -4 7 -16
5 -34 -5z"/>
</g>
</svg>
